<svg width="70" height="48" viewBox="0 0 70 48" fill="none" xmlns="http://www.w3.org/2000/svg">
<path d="M53.6562 14.7802H50.4583C48.8384 7.4971 41.8581 2 33.5167 2C25.1753 2 18.195 7.4971 16.5668 14.7802H13.3689C10.4047 14.7802 8 16.9991 8 19.7283V25.2486C8 27.9779 10.4131 30.1968 13.3689 30.1968H17.4602C18.1532 30.1968 18.7127 29.6788 18.7127 29.0371V18.0119C18.7127 10.4583 25.3507 4.31172 33.5083 4.31172C41.666 4.31172 48.304 10.4583 48.304 18.0119V26.9341C48.304 34.0316 42.359 39.9385 34.8443 40.5648C34.2765 38.8406 32.5481 37.5881 30.5025 37.5881C27.9975 37.5881 25.9602 39.4746 25.9602 41.7941C25.9602 44.1135 27.9975 46 30.5025 46C32.5982 46 34.36 44.6779 34.8861 42.8842C42.5761 42.3198 48.8885 37.0392 50.4416 30.1968H53.6562C56.6036 30.1968 59 27.9779 59 25.2486V19.7283C59 16.9991 56.6036 14.7802 53.6562 14.7802Z" fill="#F0FFF4"/>
<path d="M6.78689 41.3768C6.78689 43.251 5.26759 44.7703 3.39344 44.7703C1.5193 44.7703 0 43.251 0 41.3768C0 39.5027 1.5193 37.9834 3.39344 37.9834C5.26759 37.9834 6.78689 39.5027 6.78689 41.3768Z" fill="#32C3D7"/>
<rect x="58" y="33" width="3.39344" height="9.04918" rx="1.69672" fill="#FFB41E"/>
<circle cx="66.3934" cy="6.39344" r="2.89344" stroke="#FA649B"/>
<path d="M52.6562 14.0302H50.0478C48.1106 6.67189 40.956 1.25 32.5167 1.25C24.077 1.25 16.9227 6.67231 14.9779 14.0302H12.3689C9.04902 14.0302 6.25 16.5287 6.25 19.7283V25.2486C6.25 28.449 9.05816 30.9468 12.3689 30.9468H16.4602C17.5121 30.9468 18.4627 30.1463 18.4627 29.0371V18.0119C18.4627 10.9258 24.7095 5.06172 32.5083 5.06172C40.3072 5.06172 46.554 10.9258 46.554 18.0119V26.9341C46.554 33.4211 41.2423 38.9314 34.3279 39.7618C33.4915 38.017 31.6264 36.8381 29.5025 36.8381C26.6387 36.8381 24.2102 39.0071 24.2102 41.7941C24.2102 44.581 26.6387 46.75 29.5025 46.75C31.7188 46.75 33.6501 45.4602 34.4305 43.59C41.9842 42.8413 48.2185 37.7041 50.0285 30.9468H52.6562C55.9625 30.9468 58.75 28.4454 58.75 25.2486V19.7283C58.75 16.5316 55.9625 14.0302 52.6562 14.0302Z" stroke="#03064E" stroke-width="1.5"/>
</svg>
