<svg width="66" height="51" viewBox="0 0 66 51" fill="none" xmlns="http://www.w3.org/2000/svg">
<path fill-rule="evenodd" clip-rule="evenodd" d="M10.7677 30.251H14.7451V46.2386C14.7451 47.1871 15.568 48 16.528 48H28.4601C28.5973 48 28.8716 48 29.0087 47.8645V33.0962H38.8836V48C39.0207 48 39.1579 48 39.1579 48H50.5414C51.5014 48 52.3243 47.1871 52.3243 46.2386V30.251H57.2617C58.7704 30.251 59.5933 28.3541 58.4961 27.2702L35.7291 4.50808C35.0433 3.83064 33.9461 3.83064 33.2604 4.50808L9.53336 27.2702C8.43616 28.2186 9.12191 30.251 10.7677 30.251Z" fill="#FFF2D8"/>
<rect x="61" y="37" width="3" height="8" rx="1.5" fill="#2BCD5A"/>
<circle cx="63" cy="10" r="2.5" stroke="#FA649B"/>
<path d="M6 48C6 49.6569 4.65685 51 3 51C1.34315 51 0 49.6569 0 48C0 46.3431 1.34315 45 3 45C4.65685 45 6 46.3431 6 48Z" fill="#32C3D7"/>
<path d="M10.4951 30.251V29.501H9.74508H5.76772C4.78972 29.501 4.47255 28.3141 5.02383 27.8376L5.03854 27.8249L5.05257 27.8114L28.7796 5.0493L28.7797 5.04936L28.7875 5.04164C29.1806 4.65324 29.8069 4.65279 30.2006 5.04029C30.2011 5.04074 30.2016 5.04119 30.202 5.04164L52.9658 27.8006L52.969 27.8038C53.5716 28.399 53.125 29.501 52.2617 29.501H47.3243H46.5743V30.251V46.2386C46.5743 46.7643 46.0958 47.25 45.5414 47.25H34.6336V33.0962V32.3462H33.8836H24.0087H23.2587V33.0962V47.25H11.528C10.9736 47.25 10.4951 46.7643 10.4951 46.2386V30.251Z" stroke="#03064E" stroke-width="1.5"/>
<path d="M44.2354 2C37.7462 2 32.4707 7.27554 32.4707 13.7647C32.4707 20.2539 37.7462 25.5294 44.2354 25.5294C50.7246 25.5294 56.0001 20.2539 56.0001 13.7647C56.0001 7.27554 50.7246 2 44.2354 2ZM44.2354 4.32817C48.1735 4.32817 51.5667 6.75542 52.9784 10.1981C53.1518 10.644 52.8051 11.1146 52.3097 11.065C46.9351 10.644 41.5357 10.644 36.1611 11.065C35.6905 11.0898 35.319 10.6192 35.4924 10.1981C36.9041 6.75542 40.2973 4.32817 44.2354 4.32817ZM35.963 15.4241L40.0744 16.7864C40.7679 17.0093 41.288 17.6037 41.4119 18.322L42.0806 21.9628C42.1797 22.4582 41.7091 22.8545 41.2385 22.7059C38.2416 21.7152 35.9382 19.2384 35.1209 16.192C34.997 15.6966 35.4924 15.2508 35.963 15.4241ZM46.3902 21.9628L47.0589 18.322C47.1828 17.6037 47.7029 17.0093 48.3964 16.7864L52.5079 15.4241C53.0032 15.2508 53.4738 15.6966 53.35 16.192C52.5326 19.2632 50.2292 21.7152 47.2323 22.7059C46.7617 22.8793 46.2911 22.4582 46.3902 21.9628Z" fill="#FFF2D8"/>
<path d="M43.7647 5.07817C47.3198 5.07817 50.3958 7.22846 51.7386 10.305C46.4305 9.89731 41.0989 9.89731 35.7908 10.305C37.1336 7.22846 40.2096 5.07817 43.7647 5.07817ZM40.843 21.939C38.232 21.0173 36.2113 18.8562 35.4296 16.1935L39.3678 17.4983L39.3678 17.4983L39.3742 17.5004C39.804 17.6386 40.1261 18.0085 40.2021 18.4494L40.202 18.4494L40.2035 18.4575L40.843 21.939ZM52.1004 16.1933C51.3197 18.8761 49.3003 21.0172 46.6864 21.9391L47.3259 18.4575L47.3259 18.4575L47.3273 18.4494C47.4034 18.0085 47.7254 17.6386 48.1552 17.5004L48.1552 17.5004L48.1616 17.4983L52.1004 16.1933ZM43.7647 1.25C36.8613 1.25 31.25 6.86133 31.25 13.7647C31.25 20.6681 36.8613 26.2794 43.7647 26.2794C50.6681 26.2794 56.2794 20.6681 56.2794 13.7647C56.2794 6.86133 50.6681 1.25 43.7647 1.25Z" stroke="#03064E" stroke-width="1.5"/>
<circle cx="44" cy="14" r="1.5" stroke="#2BCD5A"/>
</svg>
