<svg width="96" height="89" viewBox="0 0 96 89" fill="none" xmlns="http://www.w3.org/2000/svg">
<path d="M86.8558 64.3594C86.5966 62.5544 85.6192 61.285 84.173 60.8804C83.9481 60.818 83.7082 60.8305 83.4914 60.916C80.985 61.9063 77.1136 63.7906 73.0103 65.785C68.8375 67.8149 64.5238 69.9111 60.8015 71.505C59.574 71.9169 58.2548 71.9943 56.9857 71.7291C56.4365 71.6692 55.8683 71.6061 55.2852 71.5843L53.0489 71.5034L53.5516 71.3416C57.0652 70.1878 65.1632 67.0705 67.3251 65.6442C67.8401 65.3552 68.2451 64.9105 68.4789 64.3772C68.7127 63.8438 68.7627 63.2506 68.6213 62.6871C68.1517 60.8902 65.7497 59.2413 63.2657 59.0099C61.2393 58.997 59.2166 59.181 57.2275 59.5592C53.8167 60.0544 49.5717 60.6693 47.0206 60.1054C40.9585 58.7656 37.1476 60.3748 33.7848 61.7939C32.8554 62.1863 31.9626 62.5625 31.0514 62.8683C30.9887 62.5031 30.7924 62.1726 30.499 61.9381C30.2056 61.7036 29.8351 61.5811 29.4562 61.5932H26.6152V61.5301C26.5814 60.9753 26.3242 60.456 25.8998 60.0858C25.4753 59.7156 24.9181 59.5246 24.3499 59.5544H18.2123C17.6783 59.5407 17.1572 59.7151 16.744 60.0458C16.3308 60.3764 16.0532 60.8413 15.9619 61.3554L11.6987 85.6959C11.6577 85.9362 11.6718 86.1824 11.74 86.4167C11.8082 86.6511 11.9287 86.8677 12.093 87.051C12.3274 87.3039 12.614 87.5053 12.934 87.642C13.254 87.7787 13.6 87.8475 13.9492 87.8439H24.3515C24.9195 87.8738 25.4764 87.6829 25.9009 87.3131C26.3253 86.9432 26.5827 86.4244 26.6168 85.8698V85.8051H29.4578C29.753 85.8104 30.044 85.7371 30.2997 85.593C30.5554 85.4489 30.766 85.2394 30.909 84.9871C32.988 85.2986 35.1489 85.6878 37.4192 86.0963C40.3108 86.6174 43.3 87.1554 46.1526 87.5292C46.7026 87.6012 47.2633 87.691 47.8092 87.7784C49.1823 88.0362 50.575 88.1826 51.9729 88.2161C54.2988 88.2239 56.5762 87.5669 58.5246 86.3261L84.1673 70.7404C86.3415 69.4128 87.1665 66.526 86.8558 64.3594ZM55.696 54.0536C59.8551 54.0538 63.9208 52.8492 67.379 50.5923C70.8372 48.3354 73.5325 45.1275 75.1243 41.3743C76.716 37.621 77.1325 33.491 76.3212 29.5065C75.5099 25.522 73.5072 21.862 70.5664 18.9893C67.6256 16.1166 63.8787 14.1603 59.7996 13.3676C55.7205 12.575 51.4923 12.9817 47.6499 14.5364C43.8074 16.091 40.5232 18.7237 38.2125 22.1016C35.9018 25.4794 34.6685 29.4507 34.6685 33.5133C34.6749 38.9589 36.8923 44.1796 40.8343 48.0303C44.7763 51.881 50.1211 54.0472 55.696 54.0536ZM55.696 49.0625C58.8445 49.0627 61.9223 48.1509 64.5402 46.4424C67.1581 44.7339 69.1986 42.3055 70.4036 39.4643C71.6085 36.623 71.9239 33.4966 71.3098 30.4802C70.6956 27.4639 69.1796 24.6932 66.9534 22.5185C64.7271 20.3439 61.8907 18.8629 58.8027 18.2628C55.7148 17.6628 52.514 17.9707 49.6052 19.1475C46.6964 20.3244 44.2102 22.3174 42.461 24.8745C40.7118 27.4315 39.7782 30.4379 39.7782 33.5133C39.783 37.6356 41.4616 41.5878 44.4457 44.5028C47.4298 47.4178 51.4758 49.0576 55.696 49.0625ZM55.696 20.0174C58.4297 20.0172 61.102 20.8089 63.375 22.2924C65.648 23.7759 67.4196 25.8845 68.4656 28.3515C69.5117 30.8185 69.7853 33.5331 69.2517 36.152C68.7182 38.7709 67.4016 41.1764 65.4684 43.0643C63.5351 44.9523 61.0721 46.2378 58.3909 46.7583C55.7097 47.2788 52.9306 47.0109 50.4052 45.9885C47.8799 44.9662 45.7216 43.2352 44.2035 41.0146C42.6853 38.794 41.8754 36.1835 41.8762 33.5133C41.8791 29.9338 43.3359 26.5017 45.927 23.9704C48.518 21.4392 52.0315 20.0157 55.696 20.0125V20.0174Z" fill="#FFE9F1"/>
<circle cx="6.48649" cy="6.48649" r="6.48649" fill="#FFB41E"/>
<circle cx="12.9729" cy="46.7027" r="3.39189" stroke="#FA649B"/>
<path d="M80.3693 64.3594C80.11 62.5544 79.1326 61.285 77.6865 60.8804C77.4615 60.818 77.2216 60.8305 77.0048 60.916C74.4984 61.9063 70.6271 63.7906 66.5238 65.785C62.3509 67.8149 58.0372 69.9111 54.315 71.505C53.0874 71.9169 51.7683 71.9943 50.4991 71.7291C49.9499 71.6692 49.3817 71.6061 48.7986 71.5843L46.5623 71.5034L47.065 71.3416C50.5786 70.1878 58.6767 67.0705 60.8385 65.6442C61.3536 65.3552 61.7586 64.9105 61.9924 64.3772C62.2262 63.8438 62.2761 63.2506 62.1347 62.6871C61.6651 60.8902 59.2631 59.2413 56.7791 59.0099C54.7527 58.997 52.73 59.181 50.7409 59.5592C47.3301 60.0544 43.0852 60.6693 40.5341 60.1054C34.4719 58.7656 30.661 60.3748 27.2982 61.7939C26.3689 62.1863 25.476 62.5625 24.5649 62.8683C24.5021 62.5031 24.3058 62.1726 24.0124 61.9381C23.719 61.7036 23.3485 61.5811 22.9696 61.5932H20.1286V61.5301C20.0949 60.9753 19.8376 60.456 19.4132 60.0858C18.9887 59.7156 18.4315 59.5246 17.8633 59.5544H11.7257C11.1918 59.5407 10.6706 59.7151 10.2574 60.0458C9.8442 60.3764 9.5666 60.8413 9.47531 61.3554L5.21216 85.6959C5.17114 85.9362 5.18523 86.1824 5.25341 86.4167C5.32158 86.6511 5.44216 86.8677 5.60642 87.051C5.84082 87.3039 6.12746 87.5053 6.44743 87.642C6.76739 87.7787 7.11339 87.8475 7.46259 87.8439H17.8649C18.4329 87.8738 18.9899 87.6829 19.4143 87.3131C19.8387 86.9432 20.0961 86.4244 20.1303 85.8698V85.8051H22.9713C23.2664 85.8104 23.5575 85.7371 23.8131 85.593C24.0688 85.4489 24.2795 85.2394 24.4224 84.9871C26.5014 85.2986 28.6624 85.6878 30.9327 86.0963C33.8242 86.6174 36.8134 87.1554 39.666 87.5292C40.216 87.6012 40.7768 87.691 41.3226 87.7784C42.6958 88.0362 44.0884 88.1826 45.4863 88.2161C47.8122 88.2239 50.0896 87.5669 52.038 86.3261L77.6807 70.7404C79.8549 69.4128 80.6799 66.526 80.3693 64.3594ZM18.0322 85.7614C17.9802 85.7841 17.9236 85.7954 17.8666 85.7946H7.46259C7.41644 85.7945 7.37049 85.7885 7.32593 85.7768L11.5427 61.6992C11.5576 61.6183 11.6504 61.6005 11.7257 61.6005H17.8649C17.922 61.5996 17.9785 61.6109 18.0306 61.6337L18.0322 85.7614ZM22.4801 83.7565H20.1303V63.6385H22.4801V83.7565ZM76.5666 68.9969L50.9273 84.5858C47.4668 86.6894 44.7765 86.2565 41.6605 85.7565C41.1023 85.6667 40.5258 85.5737 39.9443 85.4976C37.1439 85.1311 34.1795 84.5972 31.3129 84.081C29.0707 83.6764 26.7615 83.2614 24.5823 82.937V65.0139C25.7923 64.6329 26.9792 64.1851 28.1372 63.6725C31.3551 62.3133 34.6806 60.9088 40.0777 62.1013C43.0114 62.7486 47.2837 62.1304 51.0557 61.5835C52.8791 61.242 54.7304 61.0625 56.5869 61.0471C58.2683 61.2033 59.8876 62.3473 60.1079 63.1903C60.1444 63.3286 60.2115 63.5867 59.6706 63.9427C57.8782 65.1256 50.2465 68.1336 46.4032 69.3958L40.4819 71.3375L40.4521 71.348H40.4322H40.4272C40.4024 71.3577 40.3784 71.3683 40.3543 71.3796H40.3494H40.3436H40.3386H40.3336H40.327L37.7842 72.7712C37.5491 72.9078 37.378 73.1287 37.3072 73.3869C37.2364 73.645 37.2716 73.9199 37.4053 74.153C37.539 74.3861 37.7606 74.5591 38.0229 74.6349C38.2852 74.7108 38.5675 74.6836 38.8096 74.5592L41.0708 73.3472L48.7224 73.6352C49.2277 73.6547 49.7338 73.7105 50.268 73.7687C51.9036 74.0882 53.5981 73.9554 55.1606 73.3852C58.9301 71.7736 63.2678 69.6636 67.463 67.6231C71.3145 65.7493 74.9631 63.9751 77.4024 62.9767C77.6596 63.1803 77.8715 63.4333 78.0249 63.7199C78.1783 64.0065 78.2701 64.3208 78.2944 64.6434C78.5089 66.1385 77.92 68.1749 76.5691 68.9969H76.5666ZM49.2095 54.0536C53.3685 54.0538 57.4342 52.8492 60.8924 50.5923C64.3506 48.3354 67.046 45.1275 68.6377 41.3743C70.2294 37.621 70.6459 33.491 69.8346 29.5065C69.0234 25.522 67.0207 21.862 64.0798 18.9893C61.139 16.1166 57.3921 14.1603 53.313 13.3676C49.2339 12.575 45.0058 12.9817 41.1633 14.5364C37.3208 16.091 34.0366 18.7237 31.7259 22.1016C29.4153 25.4794 28.182 29.4507 28.182 33.5133C28.1883 38.9589 30.4057 44.1796 34.3477 48.0303C38.2898 51.881 43.6345 54.0472 49.2095 54.0536ZM49.2095 15.0231C52.9536 15.0229 56.6137 16.1073 59.7269 18.139C62.8401 20.1708 65.2665 23.0587 66.6994 26.4375C68.1323 29.8163 68.5073 33.5343 67.7769 37.1213C67.0465 40.7083 65.2435 44.0031 62.596 46.5892C59.9485 49.1753 56.5754 50.9364 52.9032 51.6498C49.231 52.3633 45.4247 51.997 41.9656 50.5974C38.5065 49.1977 35.55 46.8276 33.47 43.7866C31.39 40.7457 30.2798 37.1705 30.28 33.5133C30.2857 28.6111 32.2819 23.9112 35.8306 20.4449C39.3793 16.9785 44.1908 15.0286 49.2095 15.0231ZM49.2095 49.0625C52.3579 49.0627 55.4357 48.1509 58.0536 46.4424C60.6715 44.7339 62.712 42.3055 63.917 39.4643C65.1219 36.623 65.4373 33.4966 64.8232 30.4802C64.209 27.4639 62.693 24.6932 60.4668 22.5185C58.2405 20.3439 55.4041 18.8629 52.3162 18.2628C49.2282 17.6628 46.0275 17.9707 43.1187 19.1475C40.2099 20.3244 37.7237 22.3174 35.9744 24.8745C34.2252 27.4315 33.2916 30.4379 33.2916 33.5133C33.2964 37.6356 34.975 41.5878 37.9591 44.5028C40.9432 47.4178 44.9892 49.0576 49.2095 49.0625ZM49.2095 20.0174C51.9431 20.0172 54.6155 20.8089 56.8884 22.2924C59.1614 23.7759 60.933 25.8845 61.979 28.3515C63.0251 30.8185 63.2987 33.5331 62.7652 36.152C62.2316 38.7709 60.915 41.1764 58.9818 43.0643C57.0485 44.9523 54.5856 46.2378 51.9043 46.7583C49.2231 47.2788 46.444 47.0109 43.9187 45.9885C41.3933 44.9662 39.2351 43.2352 37.7169 41.0146C36.1987 38.794 35.3888 36.1835 35.3896 33.5133C35.3925 29.9338 36.8494 26.5017 39.4404 23.9704C42.0315 21.4392 45.5449 20.0157 49.2095 20.0125V20.0174Z" fill="#03064E"/>
<path d="M43.7735 38.4064V36.3336C43.7695 36.1967 43.7937 36.0603 43.8447 35.9326C43.8956 35.8049 43.9723 35.6885 44.0701 35.5903C44.1679 35.492 44.2848 35.4139 44.4141 35.3606C44.5433 35.3072 44.6822 35.2798 44.8225 35.2798C44.9628 35.2798 45.1016 35.3072 45.2309 35.3606C45.3601 35.4139 45.4771 35.492 45.5749 35.5903C45.6727 35.6885 45.7493 35.8049 45.8003 35.9326C45.8512 36.0603 45.8754 36.1967 45.8715 36.3336V38.4064C45.8715 39.2964 47.2423 40.2956 49.2095 40.2956C51.1766 40.2956 52.5482 39.2996 52.5482 38.4064V36.62C52.5482 35.9655 51.715 35.5756 51.3572 35.438L46.2956 33.4963C45.6009 33.2971 44.9861 32.8935 44.5347 32.3406C44.0834 31.7877 43.8176 31.1123 43.7735 30.4065V28.6209C43.7735 26.6735 45.6313 25.0983 48.1633 24.7536V23.0263C48.171 22.7595 48.2849 22.5061 48.4808 22.3201C48.6767 22.1341 48.9391 22.03 49.2123 22.03C49.4856 22.03 49.748 22.1341 49.9439 22.3201C50.1398 22.5061 50.2537 22.7595 50.2614 23.0263V24.7536C52.7909 25.0983 54.6512 26.6735 54.6512 28.6209V30.6921C54.6552 30.8291 54.631 30.9654 54.58 31.0931C54.5291 31.2208 54.4524 31.3372 54.3546 31.4355C54.2568 31.5337 54.1399 31.6118 54.0106 31.6651C53.8814 31.7185 53.7425 31.7459 53.6022 31.7459C53.4619 31.7459 53.3231 31.7185 53.1938 31.6651C53.0646 31.6118 52.9476 31.5337 52.8498 31.4355C52.752 31.3372 52.6754 31.2208 52.6244 31.0931C52.5735 30.9654 52.5493 30.8291 52.5532 30.6921V28.6209C52.5532 27.7309 51.1816 26.7317 49.2144 26.7317C47.2473 26.7317 45.8748 27.7277 45.8748 28.6209V30.4073C45.8748 31.0618 46.7081 31.4518 47.0659 31.5893L52.1266 33.5311C52.8215 33.73 53.4366 34.1335 53.8881 34.6864C54.3396 35.2394 54.6055 35.9149 54.6496 36.6209V38.4073C54.6496 40.3547 52.7918 41.9299 50.2597 42.2745V44.0011C50.252 44.2678 50.1381 44.5212 49.9423 44.7072C49.7464 44.8933 49.4839 44.9974 49.2107 44.9974C48.9375 44.9974 48.675 44.8933 48.4791 44.7072C48.2832 44.5212 48.1694 44.2678 48.1617 44.0011V42.2737C45.6313 41.9291 43.7735 40.3538 43.7735 38.4064Z" fill="#2BCD5A"/>
<rect x="90.8108" y="12.9729" width="5.18919" height="11.6757" rx="2.59459" fill="#2BCD5A"/>
</svg>
