<svg width="89" height="87" viewBox="0 0 89 87" fill="none" xmlns="http://www.w3.org/2000/svg">
<path d="M52.9822 9.72632C53.4574 9.92281 54.0278 10.1193 54.503 10.3158C60.0161 12.3789 66.3846 14.6385 73.1334 14.7368C75.1295 14.7368 77.1256 14.6385 79.0267 14.442V48.4344C79.0267 61.7956 56.9744 73.2902 52.8871 75.3533C51.0811 74.3709 45.473 71.5218 39.9599 67.3955C33.9716 62.8763 26.7476 55.901 26.7476 48.4344V14.3438C28.7437 14.5403 30.6447 14.6385 32.6408 14.6385C39.5797 14.6385 45.8532 12.3789 51.4613 10.3158C51.9366 10.1193 52.5069 9.92281 52.9822 9.72632Z" fill="#F0FFF4"/>
<path d="M34.0422 44.5792L39.3475 49.8476L51.6712 37.6897" stroke="#2BCD5A" stroke-width="2.5" stroke-linecap="round" stroke-linejoin="round"/>
<path d="M15.3396 49.6037V13.1646C17.2489 13.3307 19.0998 13.4139 21.0311 13.4139C28.7669 13.4139 35.7422 10.8941 41.8613 8.64298L41.8752 8.63786L41.8889 8.6322C42.1352 8.53034 42.409 8.42736 42.6973 8.319L42.7038 8.31659C42.8883 8.24724 43.0788 8.17562 43.2646 8.10291C43.4504 8.17561 43.641 8.24722 43.8255 8.31657L43.8319 8.319C44.1203 8.42736 44.394 8.53034 44.6404 8.6322L44.6522 8.63706L44.6641 8.64152C50.6843 10.8944 57.7574 13.4117 65.2795 13.5212V13.5213H65.2904C67.2091 13.5213 69.1291 13.4392 70.9819 13.2746V49.6037C70.9819 53.0453 69.561 56.4182 67.2852 59.6096C65.0107 62.7993 61.9156 65.7599 58.6541 68.3596C52.441 73.312 45.7157 76.8833 43.1715 78.1802C43.0328 78.1058 42.8813 78.0249 42.7178 77.9376C40.1908 76.5879 34.7958 73.7063 29.4814 69.7289C26.2352 67.279 22.6812 64.1827 19.9449 60.71C17.2016 57.2285 15.3396 53.4442 15.3396 49.6037Z" stroke="#03064E" stroke-width="1.5"/>
<circle cx="6.07897" cy="80.2425" r="6.07897" fill="#FFB41E"/>
<circle cx="85.1054" cy="3.64738" r="3.14738" stroke="#FA649B"/>
<rect x="53.4949" y="57.1423" width="31.6106" height="23.1001" fill="#F0FFF4"/>
<path d="M50.5744 57.1432C50.375 57.162 50.1899 57.2547 50.0554 57.4031C49.9209 57.5515 49.8468 57.7449 49.8477 57.9451V79.5966C49.8477 79.8093 49.9322 80.0132 50.0826 80.1636C50.2329 80.314 50.4369 80.3985 50.6496 80.3985H76.3106V86.0118C76.3124 86.1529 76.3515 86.291 76.4238 86.4122C76.4961 86.5334 76.5991 86.6333 76.7224 86.702C76.8457 86.7706 76.9849 86.8055 77.126 86.8031C77.2671 86.8008 77.405 86.7612 77.526 86.6884L81.122 84.5333L84.7181 86.6884C84.839 86.7612 84.9769 86.8008 85.118 86.8031C85.2591 86.8055 85.3983 86.7706 85.5216 86.702C85.6449 86.6333 85.7479 86.5334 85.8202 86.4122C85.8925 86.291 85.9316 86.1529 85.9334 86.0118V79.8096C86.9269 78.6781 87.5373 77.2055 87.5373 75.5871C87.5373 72.3264 85.0786 69.6322 81.9239 69.2345V57.9451C81.9239 57.7324 81.8394 57.5285 81.689 57.3781C81.5386 57.2277 81.3347 57.1432 81.122 57.1432H50.6496C50.6245 57.142 50.5994 57.142 50.5744 57.1432ZM51.4515 58.747H80.3201V69.2345C77.1642 69.6322 74.7068 72.3264 74.7068 75.5871C74.7068 76.7534 75.0231 77.8501 75.5713 78.7947H51.4515V58.747ZM81.122 70.7756C83.7888 70.7756 85.9334 72.9203 85.9334 75.5871C85.9334 78.2538 83.7888 80.3985 81.122 80.3985C78.4552 80.3985 76.3106 78.2538 76.3106 75.5871C76.3106 72.9203 78.4552 70.7756 81.122 70.7756ZM77.9144 81.1378C78.859 81.686 79.9557 82.0023 81.122 82.0023C82.2883 82.0023 83.3864 81.686 84.3296 81.1378V84.596L81.5355 82.917C81.4106 82.8419 81.2677 82.8022 81.122 82.8022C80.9763 82.8022 80.8334 82.8419 80.7085 82.917L77.9144 84.596V81.1378Z" fill="#03064E"/>
<path d="M57.1423 62.0054H74.1634" stroke="#2BCD5A" stroke-width="1.2" stroke-linecap="round"/>
<path d="M60.7898 65.6528L70.5161 65.6528" stroke="#2BCD5A" stroke-width="1.2" stroke-linecap="round"/>
<path d="M63.2212 75.3794H68.0844" stroke="#2BCD5A" stroke-width="1.2" stroke-linecap="round"/>
<path d="M57.1423 69.3003H74.1634" stroke="#2BCD5A" stroke-width="1.2" stroke-linecap="round"/>
</svg>
