<svg width="63" height="43" viewBox="0 0 63 43" fill="none" xmlns="http://www.w3.org/2000/svg">
<ellipse cx="34" cy="22.5" rx="21" ry="20.5" fill="#E1FBFF"/>
<circle cx="29.5" cy="22.5" r="19.75" stroke="#03064E" stroke-width="1.5"/>
<path d="M7 39C7 41.2091 5.433 43 3.5 43C1.567 43 0 41.2091 0 39C0 36.7909 1.567 35 3.5 35C5.433 35 7 36.7909 7 39Z" fill="#32C3D7"/>
<rect x="56" y="30" width="3" height="10" rx="1.5" fill="#FFB41E"/>
<path d="M62.5 4C62.5 5.9978 61.0962 7.5 59.5 7.5C57.9038 7.5 56.5 5.9978 56.5 4C56.5 2.0022 57.9038 0.5 59.5 0.5C61.0962 0.5 62.5 2.0022 62.5 4Z" stroke="#FA649B"/>
<path d="M27.7748 33.7463V31.1712C25.9712 31.0966 24.1955 30.59 23.1814 30.009L23.9879 26.8492C25.1344 27.4598 26.7311 28.0347 28.4857 28.0347C30.0266 28.0347 31.0867 27.4253 31.0867 26.357C31.0867 25.3215 30.2186 24.6877 28.2067 24.0124C25.3122 23.0337 23.34 21.6756 23.34 19.0639C23.34 16.6687 25.0108 14.7998 27.9136 14.2421V11.6709H30.5726V14.0604C32.3614 14.1223 33.5838 14.5195 34.492 14.9448L33.6856 18.0035C32.9987 17.6935 31.7429 17.0691 29.7997 17.0691C28.0583 17.0691 27.4854 17.8427 27.4854 18.5984C27.4854 19.4796 28.4277 20.0627 30.7237 20.9122C33.9465 22.0442 35.2311 23.5345 35.2311 25.9877C35.2311 28.394 33.5417 30.4293 30.4338 30.9683V33.7463H27.7748Z" stroke="#2BCD5A" stroke-width="1.2"/>
</svg>
