<svg width="80" height="61" viewBox="0 0 80 61" fill="none" xmlns="http://www.w3.org/2000/svg">
<path d="M37.9999 24.828C44.0275 24.828 48.9139 19.9416 48.9139 13.914C48.9139 7.88636 44.0275 3 37.9999 3C31.9723 3 27.0859 7.88636 27.0859 13.914C27.0859 19.9416 31.9723 24.828 37.9999 24.828Z" fill="#E1FBFF"/>
<path d="M38 27.1611C26.4086 27.1611 17 36.5697 17 48.1611V51.3977H59V48.1611C59 36.5697 49.5914 27.1611 38 27.1611Z" fill="#E1FBFF"/>
<circle cx="5" cy="56" r="5" fill="#2BCD5A"/>
<circle cx="75" cy="3" r="2.5" stroke="#FA649B"/>
<path d="M44.1639 13.914C44.1639 19.5274 39.6133 24.078 33.9999 24.078C28.3865 24.078 23.8359 19.5274 23.8359 13.914C23.8359 8.30057 28.3865 3.75 33.9999 3.75C39.6133 3.75 44.1639 8.30057 44.1639 13.914Z" stroke="#03064E" stroke-width="1.5"/>
<path d="M13.75 48.1611C13.75 36.9839 22.8228 27.9111 34 27.9111C45.1772 27.9111 54.25 36.9839 54.25 48.1611V50.6477H13.75V48.1611Z" stroke="#03064E" stroke-width="1.5"/>
<path d="M60 26.0977C51.1747 26.0977 44 33.2724 44 42.0977C44 50.9229 51.1747 58.0977 60 58.0977C68.8253 58.0977 76 50.9229 76 42.0977C76 33.2724 68.8253 26.0977 60 26.0977ZM60 29.264C65.3558 29.264 69.9705 32.565 71.8905 37.2471C72.1263 37.8534 71.6547 38.4934 70.9811 38.4261C63.6716 37.8534 56.3284 37.8534 49.0189 38.4261C48.3789 38.4598 47.8737 37.8198 48.1095 37.2471C50.0295 32.565 54.6442 29.264 60 29.264ZM48.7495 44.3545L54.3411 46.2071C55.2842 46.5103 55.9916 47.3187 56.16 48.2956L57.0695 53.2471C57.2042 53.9208 56.5642 54.4598 55.9242 54.2577C51.8484 52.9103 48.7158 49.5419 47.6042 45.3987C47.4358 44.725 48.1095 44.1187 48.7495 44.3545ZM62.9305 53.2471L63.84 48.2956C64.0084 47.3187 64.7158 46.5103 65.6589 46.2071L71.2505 44.3545C71.9242 44.1187 72.5642 44.725 72.3958 45.3987C71.2842 49.5756 68.1516 52.9103 64.0758 54.2577C63.4358 54.4934 62.7958 53.9208 62.9305 53.2471Z" fill="#E1FBFF"/>
<path d="M69.0557 37.6798L69.0477 37.679L69.0396 37.6784C61.6957 37.103 54.3179 37.1027 46.9739 37.6773C46.9217 37.6782 46.8662 37.6529 46.8278 37.6035C46.8094 37.5798 46.8029 37.56 46.8011 37.5499C46.7999 37.5427 46.8003 37.5392 46.803 37.5327L46.8034 37.5317C48.612 33.1212 52.9591 30.014 58 30.014C63.0376 30.014 67.3823 33.1171 69.193 37.523C69.2105 37.5713 69.2004 37.6082 69.1795 37.6357C69.1681 37.6508 69.1534 37.6625 69.1364 37.67C69.1211 37.6768 69.0959 37.6838 69.0557 37.6798ZM46.4902 45.0583L46.5018 45.0625L46.5136 45.0664L52.1052 46.9191L52.1052 46.9191L52.1115 46.9212C52.791 47.1396 53.3003 47.7235 53.4209 48.423L53.4209 48.423L53.4223 48.431L54.3318 53.3826L54.3317 53.3826L54.334 53.3942C54.3409 53.4285 54.3366 53.45 54.3315 53.4641C54.3257 53.4804 54.3143 53.4983 54.2958 53.5144C54.2592 53.5462 54.2094 53.5601 54.1531 53.5434C50.3275 52.2763 47.3798 49.1107 46.3309 45.2131C46.3259 45.1903 46.3278 45.1727 46.3334 45.1561C46.3402 45.1357 46.3546 45.1119 46.3777 45.091C46.4008 45.07 46.4248 45.0589 46.4431 45.0548C46.4582 45.0514 46.4721 45.0516 46.4902 45.0583ZM61.666 53.3942L61.6661 53.3942L61.6682 53.3826L62.5777 48.431L62.5777 48.431L62.5791 48.423C62.6997 47.7235 63.209 47.1396 63.8885 46.9212L63.8885 46.9212L63.8948 46.9191L69.4864 45.0664L69.4864 45.0665L69.4983 45.0624C69.5336 45.05 69.5571 45.0516 69.5728 45.0552C69.5911 45.0593 69.6113 45.0692 69.6298 45.0863C69.6657 45.1194 69.6806 45.1626 69.669 45.2134C68.6202 49.1441 65.6716 52.2791 61.8404 53.5456L61.8284 53.5495L61.8165 53.5539C61.7906 53.5635 61.7739 53.5625 61.762 53.56C61.7474 53.5569 61.7288 53.5487 61.7102 53.5323C61.6734 53.4997 61.6543 53.4526 61.666 53.3942ZM58 25.3477C48.7605 25.3477 41.25 32.8582 41.25 42.0977C41.25 51.3371 48.7605 58.8477 58 58.8477C67.2395 58.8477 74.75 51.3371 74.75 42.0977C74.75 32.8582 67.2395 25.3477 58 25.3477Z" stroke="#03064E" stroke-width="1.5"/>
<circle cx="58" cy="43.0977" r="2.5" stroke="#2BCD5A"/>
<rect x="77" y="45" width="3" height="8" rx="1.5" fill="#FFB41E"/>
</svg>
