<svg width="108" height="88" viewBox="0 0 108 88" fill="none" xmlns="http://www.w3.org/2000/svg">
<path d="M93.4383 44.2922C93.4383 63.3925 77.9544 78.8764 58.854 78.8764C39.7537 78.8764 24.2698 63.3925 24.2698 44.2922C24.2698 25.1918 39.7537 9.70789 58.854 9.70789C77.9544 9.70789 93.4383 25.1918 93.4383 44.2922Z" fill="#E1FBFF"/>
<path d="M74.9232 32.8L74.9233 32.8L74.9181 32.7873C70.3654 21.685 59.4229 13.8552 46.719 13.8552C34.0154 13.8552 23.0733 21.6846 18.5203 32.7863C17.7338 34.6964 19.4111 36.6504 21.357 36.548L21.3666 36.5475L21.3762 36.5467C38.243 35.2254 55.1875 35.2252 72.0543 36.5461C74.1659 36.7514 75.6702 34.721 74.9232 32.8ZM37.0555 73.1328L37.0554 73.1328L37.065 73.1358C39.0569 73.7649 41.1015 72.0885 40.6768 69.9422L38.5754 58.5017C38.5752 58.5003 38.5749 58.499 38.5747 58.4976C38.1362 55.9637 36.3041 53.8717 33.8617 53.0853C33.8605 53.0849 33.8594 53.0845 33.8582 53.0841L20.941 48.8043C18.8882 48.059 16.7857 49.983 17.3174 52.11L17.3173 52.1101L17.3206 52.1225C19.9562 61.9458 27.3831 69.9353 37.0555 73.1328ZM76.1177 52.121L76.1178 52.121L76.1206 52.11C76.651 49.9884 74.6349 48.0614 72.5024 48.8025L59.5798 53.0841C59.5786 53.0845 59.5774 53.0849 59.5762 53.0853C57.134 53.8718 55.3018 55.9636 54.8633 58.4975C54.8631 58.4989 54.8629 58.5003 54.8626 58.5017L52.7612 69.9422C52.3478 72.0326 54.3356 73.8769 56.3938 73.129C66.0586 69.9298 73.4829 62.0217 76.1177 52.121ZM10.4578 44.2921C10.4578 24.2917 26.7186 8.03088 46.719 8.03088C66.7194 8.03088 82.9802 24.2917 82.9802 44.2921C82.9802 64.2925 66.7194 80.5534 46.719 80.5534C26.7186 80.5534 10.4578 64.2925 10.4578 44.2921Z" stroke="#03064E" stroke-width="1.5"/>
<circle cx="6.06742" cy="81.3033" r="6.06742" fill="#2BCD5A"/>
<circle cx="91.0113" cy="3.64045" r="3.14045" stroke="#FA649B"/>
<circle cx="46.7191" cy="46.7191" r="5.92416" stroke="#2BCD5A" stroke-width="1.5"/>
<rect x="92.2246" y="63.1011" width="2.42697" height="15.7753" rx="1.21348" transform="rotate(-90 92.2246 63.1011)" fill="#32C3D7"/>
<rect x="87.3708" y="69.1685" width="2.42697" height="14.5618" rx="1.21348" transform="rotate(-90 87.3708 69.1685)" fill="#32C3D7"/>
<rect x="82.5168" y="75.2358" width="2.42697" height="12.1348" rx="1.21348" transform="rotate(-90 82.5168 75.2358)" fill="#32C3D7"/>
</svg>
